<svg width="18" height="20" viewBox="0 0 18 20" fill="none" xmlns="http://www.w3.org/2000/svg">
<path fill-rule="evenodd" clip-rule="evenodd" d="M8.99998 0C9.55226 0 9.99998 0.447715 9.99998 1V2.09418C11.1894 2.23286 12.4053 2.69901 13.4845 3.65875C14.6948 4.73504 15.4 6.22178 15.4 7.8C15.4 9.61243 15.8086 10.9242 16.3057 11.8581C16.6715 12.5446 16.9562 13.0793 17.1459 13.4615C17.24 13.6509 17.322 13.8254 17.3809 13.9736C17.4101 14.0471 17.4419 14.1348 17.466 14.227C17.4836 14.2946 17.5283 14.4745 17.5011 14.6896L17.5007 14.6926C17.4864 14.8023 17.4545 15.0408 17.3105 15.2802C17.1667 15.5192 16.9715 15.6589 16.8819 15.7224C16.7252 15.8337 16.5698 15.8815 16.4924 15.9026C16.4004 15.9276 16.311 15.9424 16.237 15.9522C16.089 15.9717 15.9168 15.9817 15.7376 15.9878C15.3805 16 14.8815 16 14.2533 16H3.74864C3.12 16 2.62098 16 2.26392 15.9878C2.08479 15.9817 1.91271 15.9717 1.76472 15.9522C1.69069 15.9424 1.60135 15.9276 1.5093 15.9025C1.43215 15.8815 1.27785 15.834 1.12188 15.7237C1.03048 15.6593 0.834196 15.5192 0.690098 15.2786C0.546354 15.0386 0.515108 14.7992 0.501286 14.6926L0.500892 14.6896C0.473658 14.4744 0.518383 14.2945 0.536029 14.2269C0.56011 14.1346 0.591955 14.047 0.621141 13.9736C0.680022 13.8254 0.762083 13.651 0.856078 13.4617C1.04571 13.0799 1.33047 12.5451 1.69624 11.8581C1.69626 11.8581 1.69628 11.858 1.69631 11.858C2.19295 10.9249 2.59998 9.61228 2.59998 7.8C2.59998 6.2212 3.30668 4.73444 4.5178 3.65843C4.53203 3.64578 4.54662 3.63354 4.56156 3.62173C5.40487 2.95461 6.63446 2.37462 7.99998 2.14886V1C7.99998 0.447715 8.44769 0 8.99998 0ZM5.82473 5.17274C5.02372 5.89437 4.59998 6.84131 4.59998 7.8C4.59998 9.92564 4.11903 11.563 3.46171 12.7979L3.46165 12.798C3.19988 13.2896 2.98954 13.6848 2.82729 13.9979C3.08522 14 3.39697 14 3.77098 14H14.231C14.605 14 14.9169 14 15.1749 13.9979C15.0126 13.6848 14.8023 13.2896 14.5404 12.7983L14.5402 12.7979C13.8833 11.5638 13.4 9.92757 13.4 7.8C13.4 6.83222 12.9692 5.87696 12.1554 5.15325C11.1188 4.23134 9.90212 3.96457 8.73561 4.06971C7.55816 4.17583 6.48345 4.65979 5.82473 5.17274ZM5.60704 17.3374C5.97301 16.9237 6.60499 16.8851 7.01862 17.2511C7.56651 17.7358 8.27307 18.003 9.00463 18.002H9.00698C9.73833 18.0027 10.4446 17.7356 10.9924 17.251C11.4061 16.8851 12.038 16.9238 12.404 17.3374C12.7699 17.7511 12.7312 18.3831 12.3175 18.749C11.404 19.5572 10.2261 20.0029 9.00636 20.002C7.78596 20.0034 6.60734 19.5576 5.69333 18.7489C5.27971 18.383 5.24107 17.751 5.60704 17.3374Z" fill="#1F6527"/>
</svg>
