<?xml version="1.0" encoding="utf-8"?>
<!-- Generator: Adobe Illustrator 28.0.0, SVG Export Plug-In . SVG Version: 6.00 Build 0)  -->
<svg version="1.1" id="Layer_1" xmlns="http://www.w3.org/2000/svg" xmlns:xlink="http://www.w3.org/1999/xlink" x="0px" y="0px"
	 viewBox="0 0 946.8 294" style="enable-background:new 0 0 946.8 294;" xml:space="preserve">
<style type="text/css">
	.st0{fill:#585959;}
	.st1{fill:#A1A3A6;}
	.st2{fill:#595959;}
</style>
<g>
	<circle class="st0" cx="141.6" cy="142.2" r="47.1"/>
	<g>
		<path class="st1" d="M44.4,245.3l43.1-43.1c-0.8-0.8-1.6-1.5-2.4-2.3c-15.2-15-22.8-34.5-22.8-58.3S69.8,98.3,85,83.2
			c15.2-15,34-22.6,56.6-22.6s41.4,7.5,56.6,22.6s22.8,34.5,22.8,58.3s-7.6,43.3-22.8,58.3c-0.4,0.4-0.9,0.9-1.4,1.3l43.1,43.1
			c0.7-0.7,1.4-1.3,2.1-2c27.5-27.2,41.2-60.8,41.2-100.7s-13.8-73.5-41.2-100.7C214.4,13.6,181,0,141.6,0S68.7,13.6,41.2,40.8
			C13.7,68.1,0,101.6,0,141.6s13.7,73.5,41.2,100.7C42.3,243.3,43.3,244.3,44.4,245.3L44.4,245.3z"/>
		<path class="st2" d="M184.4,210.9c-12.4,7.7-26.6,11.6-42.8,11.6s-29.4-3.6-41.5-10.8l-43.7,43.7c24.4,18.5,52.8,27.7,85.3,27.7
			s61.8-9.6,86.4-28.6L184.4,210.9L184.4,210.9z"/>
	</g>
</g>
<g>
	<path class="st1" d="M370.2,272.5l-26.8-72.8h7.9l22.7,63l22.7-63h7.9l-26.8,72.8L370.2,272.5L370.2,272.5z"/>
	<path class="st1" d="M450.1,265.9c-5.3,5.2-11.8,7.9-19.4,7.9s-14.1-2.6-19.4-7.9c-5.3-5.2-8-11.7-8-19.4s2.6-14.1,8-19.4
		c5.3-5.2,11.8-7.9,19.4-7.9s14.1,2.6,19.4,7.9c5.3,5.2,8,11.7,8,19.4S455.5,260.7,450.1,265.9L450.1,265.9z M416.2,261.1
		c4,4,8.8,6,14.5,6s10.6-2,14.5-6c4-4,5.9-8.9,5.9-14.6s-2-10.6-5.9-14.6c-4-4-8.8-6-14.5-6s-10.6,2-14.5,6c-4,4-5.9,8.9-5.9,14.6
		S412.3,257.1,416.2,261.1z"/>
	<path class="st1" d="M469.5,272.5v-75.9h6.9v75.9H469.5z"/>
	<path class="st1" d="M527.5,220.5h6.9v52h-6.9v-8.1c-3.9,6.2-9.7,9.4-17.5,9.4c-6.3,0-11.3-1.9-14.9-5.8c-3.6-3.9-5.5-9-5.5-15.5
		v-31.9h6.9v31.9c0,4.6,1.2,8.2,3.7,10.8c2.5,2.6,5.9,3.9,10.5,3.9c5,0,9-1.6,12.2-4.7c3.1-3.1,4.7-8,4.7-14.6V220.5L527.5,220.5z"
		/>
	<path class="st1" d="M573.3,219.3c6.3,0,11.3,1.9,14.9,5.8c3.6,3.9,5.5,9,5.5,15.5v31.9h-6.9v-31.9c0-4.6-1.2-8.2-3.7-10.8
		s-5.9-3.9-10.5-3.9c-5,0-9,1.6-12.2,4.7s-4.7,8-4.7,14.6v27.2H549v-52h6.9v8.1C559.7,222.4,565.5,219.3,573.3,219.3L573.3,219.3z"
		/>
	<path class="st1" d="M634.5,227.2h-15v31.5c0,2.8,0.5,4.9,1.7,6.1s2.8,1.8,5,1.9c2.2,0,5,0,8.3-0.1v6c-7.3,1.1-12.7,0.6-16.4-1.6
		c-3.6-2.1-5.5-6.2-5.5-12.3v-31.5h-10.9v-6.6h10.9V208l6.9-2.1v14.6h15L634.5,227.2L634.5,227.2z"/>
	<path class="st1" d="M687.5,220.5h6.9v52h-6.9v-10.2c-4.8,7.6-11.8,11.4-21,11.4c-7.4,0-13.7-2.6-19-7.9s-7.8-11.7-7.8-19.3
		s2.6-14.1,7.8-19.3c5.2-5.3,11.5-7.9,19-7.9c9.2,0,16.2,3.8,21,11.4V220.5L687.5,220.5z M652.5,261.1c4,4,8.8,6,14.5,6
		s10.6-2,14.5-6c4-4,5.9-8.9,5.9-14.6s-2-10.6-5.9-14.6c-4-4-8.8-6-14.5-6s-10.6,2-14.5,6c-4,4-5.9,8.9-5.9,14.6
		S648.5,257.1,652.5,261.1z"/>
	<path class="st1" d="M715.8,229.1c3.2-6.3,8.7-9.5,16.4-9.5v6.6c-4.7,0-8.6,1.4-11.8,4.2s-4.7,7.1-4.7,13.1v28.9h-6.9v-52h6.9
		L715.8,229.1L715.8,229.1z"/>
	<path class="st1" d="M748.5,208.1c-1,1-2.2,1.5-3.5,1.5s-2.6-0.5-3.5-1.5c-1-1-1.5-2.1-1.5-3.5s0.5-2.6,1.5-3.5s2.2-1.5,3.5-1.5
		s2.6,0.5,3.5,1.5c1,1,1.5,2.1,1.5,3.5S749.5,207.1,748.5,208.1z M741.6,272.5v-52h6.9v52H741.6z"/>
	<path class="st1" d="M807.7,220.5h6.9v52h-6.9v-10.2c-4.8,7.6-11.8,11.4-21,11.4c-7.4,0-13.7-2.6-19-7.9s-7.8-11.7-7.8-19.3
		s2.6-14.1,7.8-19.3c5.2-5.3,11.5-7.9,19-7.9c9.2,0,16.2,3.8,21,11.4V220.5L807.7,220.5z M772.7,261.1c4,4,8.8,6,14.5,6
		s10.6-2,14.5-6c4-4,5.9-8.9,5.9-14.6s-2-10.6-5.9-14.6c-4-4-8.8-6-14.5-6s-10.6,2-14.5,6c-4,4-5.9,8.9-5.9,14.6
		S768.7,257.1,772.7,261.1z"/>
	<path class="st1" d="M873.8,199.7h6.9v72.8h-6.9v-10.2c-4.8,7.6-11.8,11.4-21,11.4c-7.4,0-13.7-2.6-19-7.9s-7.8-11.7-7.8-19.3
		s2.6-14.1,7.8-19.3c5.2-5.3,11.5-7.9,19-7.9c9.2,0,16.2,3.8,21,11.4V199.7L873.8,199.7z M838.8,261.1c4,4,8.8,6,14.5,6
		s10.6-2,14.5-6c4-4,5.9-8.9,5.9-14.6s-2-10.6-5.9-14.6c-4-4-8.8-6-14.5-6s-10.6,2-14.5,6c-4,4-5.9,8.9-5.9,14.6
		S834.8,257.1,838.8,261.1z"/>
	<path class="st1" d="M938.8,265.9c-5.3,5.2-11.8,7.9-19.4,7.9s-14.1-2.6-19.4-7.9s-8-11.7-8-19.4s2.7-14.1,8-19.4
		c5.3-5.2,11.8-7.9,19.4-7.9s14.1,2.6,19.4,7.9c5.3,5.2,8,11.7,8,19.4S944.1,260.7,938.8,265.9z M904.9,261.1c4,4,8.8,6,14.5,6
		s10.6-2,14.5-6c4-4,5.9-8.9,5.9-14.6s-2-10.6-5.9-14.6c-4-4-8.8-6-14.5-6s-10.6,2-14.5,6c-4,4-5.9,8.9-5.9,14.6
		S901,257.1,904.9,261.1z"/>
</g>
<g>
	<path class="st1" d="M401,166c-20.9,0-38.2-6.9-51.9-20.8c-13.8-13.9-20.6-31.1-20.6-51.7s6.9-37.8,20.6-51.7
		c13.8-13.9,31.1-20.8,51.9-20.8c12.5,0,24,2.9,34.7,8.7s19,13.6,25.1,23.6l-27.5,15.9c-3.1-5.5-7.4-9.7-13.1-12.7S408,52,401,52
		c-12.4,0-22.2,3.8-29.6,11.4c-7.4,7.6-11.1,17.6-11.1,30.1s3.7,22.5,11.1,30.1c7.4,7.6,17.2,11.4,29.6,11.4c7,0,13.5-1.5,19.2-4.6
		c5.8-3.1,10.1-7.2,13-12.6l27.5,15.9c-6,10-14.3,17.8-24.9,23.6C425.2,163.1,413.6,166,401,166L401,166z"/>
	<path class="st1" d="M506.6,81.3c1.9-6.4,5.6-11.3,11.3-14.7s11.9-5.1,18.6-5.1v33.9c-7.3-1.2-14.1,0-20.4,3.7s-9.5,10-9.5,19v45
		h-29.9V63.6h29.9L506.6,81.3L506.6,81.3z"/>
	<path class="st1" d="M574.2,125.3c3.5,9.3,11.4,14,23.9,14c8.1,0,14.5-2.5,19.1-7.6l23.9,13.8c-9.8,13.7-24.3,20.5-43.5,20.5
		c-16.7,0-30.1-5-40.2-14.9c-10-10-15-22.5-15-37.7s5-27.5,14.8-37.6c9.9-10,22.6-15,38.2-15c14.5,0,26.5,5,36.2,15
		s14.5,22.6,14.5,37.6c0,4.2-0.4,8.2-1.2,12H574.2L574.2,125.3z M573.6,103h42.8c-2.9-10.5-10-15.8-21.1-15.8S576.5,92.5,573.6,103z
		"/>
	<path class="st1" d="M709.9,166c-15.2,0-27.7-5.1-37.8-15.1c-10-10.1-15-22.6-15-37.5s5-27.4,15-37.5c10-10.1,22.6-15.2,37.8-15.2
		c9.6,0,18.4,2.3,26.4,7s14.2,10.8,18.6,18.5l-26.1,15.2c-3.6-7.4-10-11.2-19.3-11.2c-6.5,0-11.9,2.2-16.1,6.5s-6.4,9.9-6.4,16.6
		s2.1,12.3,6.4,16.6c4.2,4.3,9.6,6.5,16.1,6.5c9.4,0,15.9-3.7,19.3-11.2l26.1,14.9c-4.4,7.8-10.6,14.1-18.5,18.7
		C728.4,163.7,719.6,166,709.9,166L709.9,166z"/>
	<path class="st1" d="M791.6,125.3c3.5,9.3,11.4,14,23.9,14c8.1,0,14.5-2.5,19.1-7.6l23.9,13.8c-9.8,13.7-24.3,20.5-43.5,20.5
		c-16.7,0-30.1-5-40.2-14.9c-10-10-15-22.5-15-37.7s5-27.5,14.8-37.6c9.9-10,22.6-15,38.2-15c14.5,0,26.5,5,36.2,15
		s14.5,22.6,14.5,37.6c0,4.2-0.4,8.2-1.2,12H791.6L791.6,125.3z M791,103h42.8c-2.9-10.5-10-15.8-21.1-15.8S793.9,92.5,791,103z"/>
	<path class="st1" d="M910.4,81.3c1.9-6.4,5.6-11.3,11.3-14.7s11.9-5.1,18.6-5.1v33.9c-7.3-1.2-14.1,0-20.4,3.7s-9.5,10-9.5,19v45
		h-29.9V63.6h29.9L910.4,81.3L910.4,81.3z"/>
</g>
</svg>
