<?xml version="1.0" encoding="UTF-8"?><svg id="a" xmlns="http://www.w3.org/2000/svg" viewBox="0 0 2490.92 643.873"><defs><style>.b{fill:#fff;}.c{fill:#a7a9ac;}</style></defs><rect class="b" x="-24.457" y="-49.529" width="2539.834" height="731.924"/><g><g><path class="c" d="M1745.454,254.879l7.038-4.13c3.671,12.851,14.534,21.571,32.127,21.571,17.899,0,26.926-9.18,26.926-21.418,0-12.851-11.321-17.747-27.691-22.948-17.899-5.814-33.963-10.862-33.963-29.526,0-17.594,14.228-28.762,32.433-28.762,17.593,0,29.22,10.097,34.422,22.489l-6.884,3.825c-3.977-9.638-12.239-18.511-27.538-18.511-14.84,0-24.172,8.72-24.172,20.653,0,12.851,10.862,16.829,26.161,21.877,18.971,6.273,35.493,12.239,35.493,30.751,0,17.746-13.922,29.373-35.187,29.373-20.041,0-34.269-10.097-39.165-25.243"/><path class="c" d="M1912.513,240.499c0,1.224-.153,2.447-.153,3.672h-69.303c1.836,17.288,14.993,28.609,32.433,28.609,12.545,0,22.03-5.814,26.467-13.922l6.732,3.978c-6.273,10.403-18.206,17.288-33.351,17.288-23.56,0-40.235-16.829-40.235-39.93,0-22.489,16.216-39.929,39.623-39.929,23.254,0,37.787,19.276,37.787,40.235m-69.456-3.825h61.501c-1.683-18.665-14.84-29.067-29.833-29.067-17.441,0-30.138,12.086-31.668,29.067"/><path class="c" d="M2005.987,201.946v72.822c0,22.948-16.982,35.952-38.094,35.952-17.899,0-30.597-7.19-36.105-18.359l6.731-3.825c3.978,8.108,12.545,14.84,29.374,14.84,19.123,0,30.445-11.168,30.445-28.608v-14.075c-6.272,11.78-18.053,19.43-32.893,19.43-21.877,0-39.624-17.288-39.624-39.93s17.747-39.929,39.624-39.929c14.84,0,26.62,7.649,32.893,19.429v-17.747h7.65Zm-7.65,38.247c0-18.205-14.228-32.586-32.433-32.586s-32.433,14.381-32.433,32.586,14.228,32.587,32.433,32.587,32.433-14.381,32.433-32.587"/><path class="c" d="M2092.272,201.946v76.494h-7.65v-14.533c-5.814,11.321-15.605,16.217-27.384,16.217-18.205,0-29.68-12.086-29.68-30.598v-47.579h7.802v47.579c0,14.075,8.108,23.254,22.489,23.254,14.993,0,26.772-9.791,26.772-30.444v-40.389h7.65Z"/><path class="c" d="M2149.029,200.875v7.344c-13.157,0-25.549,8.108-25.549,27.69v42.531h-7.649v-76.494h7.649v14.993c5.202-12.086,15.146-16.064,25.549-16.064"/><path class="c" d="M2154.69,240.193c0-22.642,17.899-39.929,40.235-39.929,22.183,0,40.083,17.287,40.083,39.929s-17.9,39.93-40.083,39.93c-22.336,0-40.235-17.288-40.235-39.93m72.515,0c0-18.205-14.075-32.586-32.281-32.586s-32.433,14.381-32.433,32.586,14.228,32.587,32.433,32.587,32.281-14.381,32.281-32.587"/><path class="c" d="M2303.393,258.398c0,12.545-11.015,21.724-27.385,21.724-15.299,0-25.396-7.19-29.067-16.982l6.578-3.824c2.753,8.261,11.015,13.463,22.489,13.463,10.709,0,19.735-4.743,19.735-14.381,0-20.806-46.355-8.873-46.355-36.411,0-12.086,10.403-21.724,26.008-21.724,12.392,0,21.877,5.966,26.008,15.298l-6.426,3.672c-3.213-7.956-11.168-11.627-19.583-11.627-9.944,0-18.358,5.202-18.358,14.381,0,20.501,46.355,8.414,46.355,36.411"/><path class="c" d="M1738.569,390.783c0-43.538,32.338-76.933,76.933-76.933,26.842,0,50.514,13.316,63.407,34.24l-29.167,16.908c-6.552-11.413-19.233-18.176-34.24-18.176-26.207,0-43.116,17.541-43.116,43.961s16.909,43.962,43.116,43.962c15.007,0,27.9-6.763,34.24-18.177l29.167,16.908c-12.681,20.925-36.354,34.24-63.407,34.24-44.594,0-76.933-33.394-76.933-76.933"/><path class="c" d="M1960.485,356.967v35.93c-13.104-2.114-31.703,3.171-31.703,24.094v47.766h-31.703v-105.677h31.703v18.81c4.227-14.161,18.388-20.924,31.703-20.924"/><path class="c" d="M2027.057,439.394c8.665,0,16.063-3.382,20.29-8.032l25.363,14.583c-10.357,14.373-25.997,21.77-46.076,21.77-36.141,0-58.545-24.305-58.545-55.797s22.826-55.797,56.22-55.797c30.858,0,53.684,23.883,53.684,55.797,0,4.439-.422,8.665-1.268,12.681h-75.03c4.016,10.991,13.737,14.796,25.362,14.796m19.445-38.466c-3.382-12.26-12.893-16.698-22.404-16.698-12.047,0-20.079,5.918-23.037,16.698h45.441Z"/><path class="c" d="M2090.882,411.918c0-31.492,23.883-55.797,56.009-55.797,20.501,0,38.677,10.779,47.765,27.053l-27.687,16.063c-3.594-7.398-11.202-11.836-20.501-11.836-13.738,0-23.884,9.935-23.884,24.517s10.146,24.517,23.884,24.517c9.299,0,17.12-4.439,20.501-11.836l27.687,15.852c-9.088,16.486-27.054,27.265-47.765,27.265-32.126,0-56.009-24.305-56.009-55.797"/><path class="c" d="M2260.17,439.394c8.666,0,16.063-3.382,20.29-8.032l25.363,14.583c-10.358,14.373-25.997,21.77-46.076,21.77-36.142,0-58.545-24.305-58.545-55.797s22.826-55.797,56.221-55.797c30.858,0,53.684,23.883,53.684,55.797,0,4.439-.422,8.665-1.269,12.681h-75.03c4.016,10.991,13.738,14.796,25.362,14.796m19.446-38.466c-3.382-12.26-12.893-16.698-22.404-16.698-12.048,0-20.079,5.918-23.037,16.698h45.441Z"/><path class="c" d="M2393.739,356.967v35.93c-13.104-2.114-31.703,3.171-31.703,24.094v47.766h-31.703v-105.677h31.703v18.81c4.227-14.161,18.387-20.924,31.703-20.924"/><path class="c" d="M1674.405,325.495c-1.881-.729-3.606-1.423-5.349-2.069-8.074-2.991-16.394-4.956-24.943-5.977-8.62-1.03-17.24-1.044-25.873-.175-15.753,1.585-30.609,6.06-44.298,14.057-23.735,13.868-39.481,34.141-47.757,60.277-2.607,8.233-4.124,16.687-4.758,25.305-1.323,17.988,1.046,35.426,7.684,52.24,.174,.44,.345,.881,.56,1.433-.426,.018-.741,.045-1.057,.045-40.193,.002-80.387,.014-120.58-.005-15.235-.007-28.298-10.948-30.91-25.879-.331-1.887-.454-3.833-.454-5.751-.022-79.242,.012-158.484-.046-237.727-.012-14.918,10.509-27.97,24.98-30.948,1.818-.374,3.695-.462,5.547-.664,.417-.046,.843-.013,1.265-.013,78.067,0,156.134,.001,234.201-.002,9.265,0,17.095,3.37,23.405,10.118,4.887,5.226,7.65,11.463,8.233,18.623,.1,1.229,.146,2.465,.146,3.699,.007,40.675,.006,81.351,.006,122.027v1.387Z"/><path class="c" d="M1615.465,470.632c-9.762,0-19.524-.007-29.286,.015-.73,.002-1.212-.222-1.695-.768-7.401-8.366-11.736-18.181-13.793-29.077-1.304-6.907-1.595-13.874-1.068-20.87,.912-12.122,4.323-23.407,11.592-33.307,7.816-10.647,18.35-17.267,31.035-20.614,7.165-1.89,14.469-2.527,21.842-2.158,11.684,.586,22.472,3.912,31.984,10.915,2.875,2.116,5.474,4.534,7.798,7.24,.299,.347,.51,.898,.511,1.356,.025,18.771,.054,37.541,.009,56.312-.035,14.676-11.125,27.857-25.529,30.389-2.005,.352-4.065,.529-6.101,.542-9.099,.057-18.198,.025-27.297,.025"/></g><g><g><g><path class="c" d="M427.008,377.562c0-44.801,33.276-79.163,79.163-79.163,27.62,0,51.979,13.701,65.246,35.233l-30.013,17.399c-6.741-11.745-19.791-18.703-35.233-18.703-26.967,0-44.366,18.05-44.366,45.236s17.399,45.237,44.366,45.237c15.442,0,28.708-6.959,35.233-18.703l30.013,17.398c-13.049,21.531-37.408,35.233-65.246,35.233-45.888,0-79.163-34.363-79.163-79.163Z"/><path class="c" d="M655.358,342.765v36.972c-13.484-2.175-32.622,3.263-32.622,24.793v49.151h-32.622v-108.742h32.622v19.356c4.35-14.571,18.921-21.53,32.622-21.53Z"/><path class="c" d="M723.861,427.583c8.917,0,16.529-3.48,20.879-8.265l26.098,15.006c-10.657,14.79-26.751,22.401-47.412,22.401-37.189,0-60.243-25.01-60.243-57.415s23.488-57.415,57.851-57.415c31.753,0,55.241,24.575,55.241,57.415,0,4.567-.435,8.916-1.306,13.048h-77.206c4.132,11.31,14.136,15.224,26.097,15.224Zm20.009-39.581c-3.48-12.615-13.267-17.182-23.053-17.182-12.397,0-20.661,6.09-23.705,17.182h46.759Z"/><path class="c" d="M789.537,399.311c0-32.405,24.576-57.415,57.633-57.415,21.095,0,39.799,11.091,49.15,27.838l-28.49,16.528c-3.697-7.612-11.526-12.179-21.095-12.179-14.136,0-24.576,10.222-24.576,25.229s10.44,25.228,24.576,25.228c9.569,0,17.616-4.567,21.095-12.179l28.49,16.312c-9.352,16.964-27.838,28.055-49.15,28.055-33.057,0-57.633-25.01-57.633-57.415Z"/><path class="c" d="M963.733,427.583c8.917,0,16.529-3.48,20.879-8.265l26.098,15.006c-10.657,14.79-26.751,22.401-47.412,22.401-37.189,0-60.243-25.01-60.243-57.415s23.488-57.415,57.851-57.415c31.753,0,55.241,24.575,55.241,57.415,0,4.567-.435,8.916-1.306,13.048h-77.206c4.132,11.31,14.136,15.224,26.097,15.224Zm20.009-39.581c-3.48-12.615-13.267-17.182-23.053-17.182-12.397,0-20.661,6.09-23.705,17.182h46.759Z"/><path class="c" d="M1101.175,342.765v36.972c-13.484-2.175-32.622,3.263-32.622,24.793v49.151h-32.622v-108.742h32.622v19.356c4.35-14.571,18.921-21.53,32.622-21.53Z"/></g><g><path class="c" d="M505.595,259.203h-51.475l-9.973,26.105h-8.212l39.889-102.659h8.213l39.744,102.659h-8.213l-9.972-26.105Zm-2.787-7.332l-22.878-59.689-22.879,59.689h45.756Z"/><path class="c" d="M547.388,189.982v41.063h47.369v7.332h-47.369v46.93h-7.773v-102.659h56.902v7.333h-49.129Z"/><path class="c" d="M683.332,214.473c0,18.038-13.492,31.677-31.971,31.677h-27.131v39.157h-7.773v-102.659h34.904c18.479,0,31.971,13.639,31.971,31.825Zm-7.772,0c0-14.226-10.119-24.491-24.198-24.491h-27.131v48.836h27.131c14.079,0,24.198-10.266,24.198-24.345Z"/></g></g><g><path class="c" d="M393.2,325.011c-1.87-.725-3.584-1.415-5.317-2.057-8.027-2.973-16.296-4.927-24.796-5.942-8.569-1.024-17.138-1.038-25.72-.174-15.659,1.576-30.428,6.024-44.036,13.974-23.595,13.785-39.248,33.939-47.474,59.92-2.591,8.184-4.1,16.589-4.73,25.156-1.315,17.881,1.04,35.216,7.638,51.93,.173,.438,.342,.876,.556,1.425-.423,.019-.737,.045-1.05,.045-39.956,.002-79.911,.014-119.867-.005-15.145-.007-28.13-10.884-30.727-25.726-.328-1.876-.451-3.81-.451-5.717-.022-78.773,.012-157.546-.046-236.319-.011-14.83,10.447-27.804,24.832-30.765,1.807-.372,3.673-.46,5.514-.66,.415-.045,.838-.013,1.257-.013,77.605,0,155.21,.001,232.815-.002,9.211,0,16.993,3.35,23.267,10.058,4.859,5.196,7.604,11.396,8.184,18.512,.1,1.222,.145,2.451,.145,3.677,.007,40.435,.006,80.869,.006,121.304v1.379Z"/><path class="c" d="M334.609,469.289c-9.704,0-19.409-.007-29.113,.015-.725,.002-1.205-.222-1.685-.764-7.356-8.317-11.666-18.073-13.712-28.905-1.296-6.866-1.586-13.792-1.062-20.746,.907-12.05,4.298-23.268,11.523-33.11,7.77-10.584,18.241-17.165,30.852-20.492,7.122-1.879,14.383-2.512,21.713-2.145,11.615,.582,22.339,3.889,31.794,10.851,2.857,2.104,5.442,4.507,7.751,7.197,.297,.346,.507,.894,.508,1.348,.025,18.66,.054,37.319,.009,55.979-.035,14.589-11.059,27.691-25.379,30.209-1.993,.35-4.041,.526-6.065,.539-9.045,.056-18.09,.025-27.136,.025Z"/></g></g></g></svg>