<?xml version="1.0" encoding="utf-8"?>
<!-- Generator: Adobe Illustrator 28.0.0, SVG Export Plug-In . SVG Version: 6.00 Build 0)  -->
<svg version="1.1" id="Layer_1" xmlns="http://www.w3.org/2000/svg" xmlns:xlink="http://www.w3.org/1999/xlink" x="0px" y="0px"
	 viewBox="0 0 294 290.4" style="enable-background:new 0 0 294 290.4;" xml:space="preserve">
<style type="text/css">
	.st0{fill:#585959;}
	.st1{fill:#A1A3A6;}
	.st2{fill:#595959;}
</style>
<g>
	<circle class="st0" cx="147" cy="145.9" r="47.1"/>
	<g>
		<path class="st1" d="M49.8,248.9l43.1-43.1c-0.8-0.8-1.6-1.5-2.4-2.3c-15.2-15-22.8-34.5-22.8-58.3s7.6-43.3,22.8-58.3
			c15.2-15,34-22.6,56.6-22.6s41.4,7.5,56.6,22.6c15.2,15,22.8,34.5,22.8,58.3s-7.6,43.3-22.8,58.3c-0.4,0.5-0.9,0.9-1.4,1.3
			l43.1,43.1c0.7-0.7,1.4-1.3,2.1-2c27.5-27.2,41.2-60.8,41.2-100.7s-13.8-73.5-41.2-100.7C219.9,17.3,186.4,3.7,147,3.7
			S74.1,17.3,46.7,44.5C19.2,71.7,5.4,105.3,5.4,145.2s13.7,73.5,41.2,100.7C47.7,247,48.7,247.9,49.8,248.9L49.8,248.9z"/>
		<path class="st2" d="M189.8,214.5c-12.4,7.7-26.6,11.6-42.8,11.6s-29.4-3.6-41.5-10.8L61.7,259c24.4,18.5,52.8,27.7,85.3,27.7
			s61.8-9.6,86.4-28.7L189.8,214.5L189.8,214.5z"/>
	</g>
</g>
</svg>
