
<svg width="128" height="129" viewBox="0 0 128 129" fill="none" xmlns="http://www.w3.org/2000/svg">
<path d="M6.49571 37.7013L37.1823 6.99493C38.1659 6.01138 39.4773 5.48682 40.9198 5.48682H87.1464C88.5234 5.48682 89.9004 6.01138 90.8839 6.99493L121.505 37.6358C122.488 38.6193 123.013 39.9307 123.013 41.3732V87.6263C123.013 89.0032 122.488 90.3802 121.505 91.3638L90.8839 122.005C89.9004 122.988 88.589 123.513 87.1464 123.513H40.8542C39.4586 123.521 38.116 122.979 37.1167 122.005L6.49571 91.3638C6.00826 90.8725 5.62378 90.2889 5.36481 89.6471C5.10585 89.0053 4.97761 88.3183 4.9876 87.6263V41.3732C4.9876 39.9963 5.51216 38.6193 6.49571 37.6358V37.7013Z" fill="black" fill-opacity="0.16"/>
<path fill-rule="evenodd" clip-rule="evenodd" d="M40.6903 10.3753C40.672 10.3827 40.6567 10.3914 40.6343 10.4137L9.91558 41.1523C9.8994 41.1685 9.88313 41.1845 9.86676 41.2004C9.85406 41.2468 9.84666 41.298 9.84666 41.3481V87.6513C9.84666 87.675 9.84649 87.6987 9.84614 87.7224C9.8456 87.76 9.85256 87.7973 9.86662 87.8321C9.88024 87.8658 9.90026 87.8966 9.92558 87.9228C9.92638 87.9236 9.92719 87.9245 9.92801 87.9253L40.5342 118.551C40.6071 118.618 40.7024 118.654 40.8013 118.654C40.8106 118.654 40.8198 118.654 40.8291 118.654H87.1715C87.2932 118.654 87.3555 118.632 87.3759 118.624C87.3941 118.617 87.4094 118.608 87.4315 118.586C87.4316 118.586 87.4317 118.586 87.4319 118.586L118.083 87.9143C118.086 87.9107 118.1 87.8917 118.116 87.8515C118.139 87.7933 118.154 87.7213 118.154 87.6513V41.3481C118.154 41.2264 118.133 41.1641 118.124 41.1437C118.117 41.1254 118.108 41.1101 118.086 41.0877L87.4351 10.4168C87.4351 10.4168 87.4349 10.4167 87.4345 10.4163C87.4308 10.4135 87.4118 10.3994 87.3717 10.3835C87.3134 10.3603 87.2414 10.3459 87.1715 10.3459H40.8947C40.773 10.3459 40.7107 10.3671 40.6903 10.3753ZM118.086 87.9117L118.085 87.9128C118.085 87.9125 118.086 87.9121 118.086 87.9117ZM3.4614 33.6816L33.6721 3.45143C35.6294 1.49415 38.2165 0.499756 40.8947 0.499756H87.1715C89.7515 0.499756 92.4151 1.47245 94.3941 3.45143L125.048 34.1255C125.049 34.1258 125.049 34.1262 125.049 34.1266C127.006 36.0837 128 38.6705 128 41.3481V87.6513C128 90.2308 127.028 92.894 125.049 94.8728C125.049 94.8732 125.049 94.8736 125.048 94.874L94.3941 125.548C92.4368 127.505 89.8496 128.5 87.1715 128.5H40.8392C38.1549 128.51 35.5734 127.466 33.651 125.592C33.6356 125.577 33.6204 125.562 33.6053 125.547L2.95109 94.8728L2.93867 94.8604C1.98918 93.9034 1.24026 92.7666 0.735821 91.5165C0.23655 90.2791 -0.0132731 88.9555 0.000543307 87.6216V41.3481C0.000543307 38.7681 0.973239 36.1044 2.95221 34.1255C3.11316 33.9645 3.28338 33.8165 3.4614 33.6816Z" fill="black"/>
<path fill-rule="evenodd" clip-rule="evenodd" d="M63.975 33.1924C66.5624 33.1924 68.66 35.4056 68.66 38.1357V71.0908C68.66 73.8209 66.5624 76.034 63.975 76.034C61.3876 76.034 59.29 73.8209 59.29 71.0908V38.1357C59.29 35.4056 61.3876 33.1924 63.975 33.1924ZM59.29 90.8638C59.29 88.1337 61.3876 85.9206 63.975 85.9206H64.025C66.6124 85.9206 68.71 88.1337 68.71 90.8638C68.71 93.5939 66.6124 95.8071 64.025 95.8071H63.975C61.3876 95.8071 59.29 93.5939 59.29 90.8638Z" fill="black"/>
</svg>
